<svg id="visual" viewBox="0 0 900 600" width="900" height="600" xmlns="http://www.w3.org/2000/svg" xmlns:xlink="http://www.w3.org/1999/xlink" version="1.1"><rect x="0" y="0" width="900" height="600" fill="#002233"></rect><path d="M0 116L16.7 114.7C33.3 113.3 66.7 110.7 100 106.7C133.3 102.7 166.7 97.3 200 102.7C233.3 108 266.7 124 300 139.5C333.3 155 366.7 170 400 179.8C433.3 189.7 466.7 194.3 500 179.3C533.3 164.3 566.7 129.7 600 129.2C633.3 128.7 666.7 162.3 700 173.2C733.3 184 766.7 172 800 159.2C833.3 146.3 866.7 132.7 883.3 125.8L900 119" fill="none" stroke-linecap="round" stroke-linejoin="miter" stroke="#0066FF" stroke-width="40"></path></svg>