<svg id="visual" viewBox="0 0 900 600" width="900" height="600" xmlns="http://www.w3.org/2000/svg" xmlns:xlink="http://www.w3.org/1999/xlink" version="1.1"><rect x="0" y="0" width="900" height="600" fill="#FFFFFF"></rect><path d="M0 163L16.7 161.2C33.3 159.3 66.7 155.7 100 150C133.3 144.3 166.7 136.7 200 144.2C233.3 151.7 266.7 174.3 300 196.2C333.3 218 366.7 239 400 252.5C433.3 266 466.7 272 500 251C533.3 230 566.7 182 600 181.5C633.3 181 666.7 228 700 243.2C733.3 258.3 766.7 241.7 800 223.8C833.3 206 866.7 187 883.3 177.5L900 168L900 0L883.3 0C866.7 0 833.3 0 800 0C766.7 0 733.3 0 700 0C666.7 0 633.3 0 600 0C566.7 0 533.3 0 500 0C466.7 0 433.3 0 400 0C366.7 0 333.3 0 300 0C266.7 0 233.3 0 200 0C166.7 0 133.3 0 100 0C66.7 0 33.3 0 16.7 0L0 0Z" fill="#0066FF" stroke-linecap="round" stroke-linejoin="miter"></path></svg>